# xmcd CD database file
#
# Track frame offsets:
#	182
#	31007
#	53415
#	81795
#	100197
#	128450
#
# Disc length: 2632 seconds
#
# Revision: 0
# Processed by: cddbd v1.4PL0 Copyright (c) Steve Scherf et al.
# Submitted via: Feurio! 1.62.5ß - http://www.feurio.com
#
DISCID=350a4606
DTITLE=John Lee Hooker - LIVE USA
DYEAR=1900
DGENRE=blues
TTITLE0=Crawlin' Kingsnake
TTITLE1=Father Was A Jockey
TTITLE2=MR. Lucky
TTITLE3=I Want To Hug You
TTITLE4=I'm In The Mood
TTITLE5=Boogie Chillun
EXTD=
EXTT0=
EXTT1=
EXTT2=
EXTT3=
EXTT4=
EXTT5=
PLAYORDER=
